#!OML:ASF I:\Actors\actors\Patient Classification 1\Patient 1\Session 1\Subject1.ASF
:FULLY-SPECIFIED
:DEGREES
1452
root 0.325149 17.5602 9.14317 11.771 1.69363 -10.137
lowerback 4.98964 1.7892 5.96333
upperback -7.04457 3.22003 2.2055
thorax -10.1407 1.21676 -1.40856
lowerneck -19.4798 -3.86226 -1.32866
upperneck 24.8062 -7.1819 7.3296
head 11.6949 -2.41492 1.79993
rclavicle -2.51024e-014 1.19271e-015
rhumerus 29.9494 41.5576 -52.0783
rradius 58.4093
rwrist 27.258
rhand 14.0159 -34.4896
rfingers 7.12502
rthumb 38.9246 -60.0312
lclavicle -2.51024e-014 1.19271e-015
lhumerus 21.5339 -40.4758 59.3392
lradius 53.1363
lwrist -20.4928
lhand -10.8871 -18.7105
lfingers 7.12502
lthumb 15.1293 10.7165
rfemur -11.0645 18.6356 26.753
rtibia 7.7353
rfoot -12.1397 -21.9577
rtoes 2.30532
lfemur -0.889919 -46.7514 -4.96409
ltibia -4.17725
lfoot -20.6976 53.46
ltoes 9.57792
1453
root 0.32425 17.5584 9.13353 11.8501 1.46541 -10.1327
lowerback 4.93512 1.84115 5.93603
upperback -6.9836 3.27352 2.15024
thorax -10.0333 1.24639 -1.45652
lowerneck -19.6279 -3.88153 -1.32771
upperneck 24.7084 -7.21548 7.37379
head 11.6908 -2.42356 1.80756
rclavicle 1.58717e-015 1.27222e-014
rhumerus 30.3285 41.6422 -52.1125
rradius 57.9933
rwrist 27.4084
rhand 13.8097 -34.3835
rfingers 7.12502
rthumb 38.7301 -59.9804
lclavicle 1.58717e-015 1.27222e-014
lhumerus 21.9199 -40.8174 59.519
lradius 52.881
lwrist -20.505
lhand -10.7605 -18.9122
lfingers 7.12502
lthumb 15.2512 10.5056
rfemur -11.2014 18.6515 26.7135
rtibia 7.76673
rfoot -12.0201 -21.8222
rtoes 1.96846
lfemur -0.796516 -47.0948 -5.03012
ltibia -4.23236
lfoot -21.4218 53.8933
ltoes 10.3192
1454
root 0.324783 17.5558 9.12223 11.9648 1.27618 -10.0837
lowerback 4.9653 1.87187 5.86317
upperback -6.98255 3.30482 2.09134
thorax -10.0473 1.26386 -1.48422
lowerneck -19.6988 -3.87838 -1.16728
upperneck 24.5637 -7.20644 7.22139
head 11.6354 -2.42689 1.72301
rclavicle -5.69953e-016 1.78906e-014
rhumerus 30.4647 41.5901 -52.3487
rradius 58.0099
rwrist 27.633
rhand 13.6444 -34.0421
rfingers 7.12502
rthumb 38.5741 -59.6827
lclavicle -5.69953e-016 1.78906e-014
lhumerus 22.2844 -41.2602 59.4649
lradius 52.9828
lwrist -20.2865
lhand -11.1181 -19.1668
lfingers 7.12502
lthumb 14.9067 10.2768
rfemur -11.3631 18.661 26.5883
rtibia 7.72559
rfoot -11.8551 -21.6851
rtoes 1.70685
lfemur -0.858982 -47.2489 -5.04275
ltibia -4.26382
lfoot -21.6198 54.1912
ltoes 10.5626
1455
root 0.326121 17.5538 9.11027 12.0952 1.14827 -10.0008
lowerback 5.05461 1.88385 5.75842
upperback -6.99716 3.31395 2.03622
thorax -10.1175 1.27114 -1.49003
lowerneck -19.7743 -3.88731 -1.00507
upperneck 24.4016 -7.20963 7.05358
head 11.5741 -2.43812 1.63059
rclavicle 7.92033e-016 1.98785e-014
rhumerus 30.37 41.3539 -52.7756
rradius 58.508
rwrist 27.692
rhand 13.6339 -33.7242
rfingers 7.12502
rthumb 38.5643 -59.3677
lclavicle 7.92033e-016 1.98785e-014
lhumerus 22.7015 -41.6406 59.2815
lradius 53.2983
lwrist -20.0653
lhand -11.7635 -19.4702
lfingers 7.12502
lthumb 14.2849 10.0184
rfemur -11.5496 18.6746 26.4038
rtibia 7.67007
rfoot -11.7542 -21.5847
rtoes 1.66721
lfemur -1.02755 -47.485 -5.03185
ltibia -4.23577
lfoot -21.799 54.5007
ltoes 10.5858
1456
root 0.326552 17.5538 9.09849 12.2338 1.1185 -9.94658
lowerback 5.14006 1.85262 5.65893
upperback -6.97186 3.26754 2.03894
thorax -10.1479 1.25547 -1.42912
lowerneck -19.8553 -3.90011 -1.13198
upperneck 24.0753 -7.1983 7.1941
head 11.4766 -2.43551 1.70116
rclavicle 1.05294e-015 -9.54166e-015
rhumerus 30.1196 40.9235 -53.4237
rradius 59.4365
rwrist 27.767
rhand 13.551 -33.5888
rfingers 7.12502
rthumb 38.486 -59.2541
lclavicle 1.05294e-015 -9.54166e-015
lhumerus 23.2243 -41.7565 59.0065
lradius 53.7426
lwrist -19.9804
lhand -12.2551 -19.7189
lfingers 7.12502
lthumb 13.8112 9.80257
rfemur -11.7272 18.6992 26.2651
rtibia 7.59699
rfoot -11.7121 -21.5774
rtoes 1.83256
lfemur -1.25767 -47.8751 -4.9296
ltibia -4.18153
lfoot -22.3946 54.8
ltoes 11.1593
1457
root 0.324946 17.5551 9.08871 12.3795 1.12416 -9.98122
lowerback 5.21326 1.79443 5.61888
upperback -6.94492 3.19382 2.08927
thorax -10.1712 1.22448 -1.34605
lowerneck -19.8635 -3.87271 -1.30064
upperneck 23.632 -7.12529 7.40975
head 11.323 -2.40489 1.81576
rclavicle 2.13694e-015 1.86858e-014
rhumerus 29.9549 40.463 -54.1037
rradius 60.4624
rwrist 27.9497
rhand 13.5238 -33.537
rfingers 7.12502
rthumb 38.4604 -59.2095
lclavicle 2.13694e-015 1.86858e-014
lhumerus 23.7416 -41.5989 58.7565
lradius 54.1539
lwrist -20.0771
lhand -12.501 -20.0695
lfingers 7.12502
lthumb 13.5742 9.46797
rfemur -11.8851 18.7869 26.247
rtibia 7.51294
rfoot -11.62 -21.6395
rtoes 1.88604
lfemur -1.48838 -48.2009 -4.68689
ltibia -4.19003
lfoot -22.8757 55.0655
ltoes 11.7294
1458
root 0.321591 17.5572 9.07933 12.514 1.07799 -10.075
lowerback 5.32996 1.75026 5.60566
upperback -6.95672 3.14842 2.14802
thorax -10.2618 1.2031 -1.27444
lowerneck -19.8251 -3.79553 -1.22206
upperneck 23.2782 -7.00432 7.3964
head 11.1726 -2.35729 1.81393
rclavicle -6.18096e-015 -5.96354e-015
rhumerus 30.1207 40.182 -54.3674
rradius 61.258
rwrist 28.0141
rhand 13.5616 -33.3754
rfingers 7.12502
rthumb 38.496 -59.0379
lclavicle -6.18096e-015 -5.96354e-015
lhumerus 24.1415 -41.2961 58.6163
lradius 54.434
lwrist -20.144
lhand -12.6599 -20.6179
lfingers 7.12502
lthumb 13.421 8.92981
rfemur -12.0374 18.9268 26.2981
rtibia 7.43205
rfoot -11.4912 -21.686
rtoes 1.80646
lfemur -1.62066 -48.6288 -4.42972
ltibia -4.24372
lfoot -23.5311 55.4721
ltoes 12.1987
1459
root 0.318217 17.5612 9.06696 12.6302 1.03 -10.1207
lowerback 5.42485 1.71392 5.58004
upperback -6.92866 3.10524 2.17642
thorax -10.2929 1.18463 -1.22727
lowerneck -19.8476 -3.72289 -1.07114
upperneck 22.9977 -6.9001 7.30881
head 11.0575 -2.31611 1.77031
rclavicle 1.20513e-014 4.81059e-014
rhumerus 30.5574 39.9541 -54.2722
rradius 61.6953
rwrist 28.0568
rhand 13.4786 -33.0282
rfingers 7.12502
rthumb 38.4177 -58.7125
lclavicle 1.20513e-014 4.81059e-014
lhumerus 24.8023 -40.9666 58.2522
lradius 54.4519
lwrist -19.982
lhand -12.7605 -21.2379
lfingers 7.12502
lthumb 13.3241 8.31609
rfemur -12.1683 19.064 26.2861
rtibia 7.31574
rfoot -11.3755 -21.7359
rtoes 1.86462
lfemur -1.76787 -49.1335 -4.2342
ltibia -4.23177
lfoot -24.5638 55.8328
ltoes 13.0818
1460
root 0.316804 17.5658 9.05258 12.7503 1.11324 -10.1137
lowerback 5.39011 1.67576 5.63986
upperback -6.82442 3.04766 2.14478
thorax -10.154 1.15598 -1.2843
lowerneck -19.9379 -3.70401 -0.906005
upperneck 22.6872 -6.87221 7.21087
head 10.9478 -2.30883 1.70774
rclavicle -9.11925e-015 4.57205e-014
rhumerus 31.2163 39.6481 -53.922
rradius 61.6892
rwrist 28.0233
rhand 13.5504 -32.3909
rfingers 7.12502
rthumb 38.4855 -58.0564
lclavicle -9.11925e-015 4.57205e-014
lhumerus 26.0729 -40.7078 57.5038
lradius 53.9664
lwrist -19.9125
lhand -12.6888 -22.0414
lfingers 7.12502
lthumb 13.3931 7.50806
rfemur -12.2795 19.1391 26.2175
rtibia 7.15544
rfoot -11.2904 -21.8565
rtoes 2.05654
lfemur -2.12687 -49.271 -3.94688
ltibia -4.18824
lfoot -24.8012 55.8385
ltoes 13.4055
1461
root 0.317281 17.5677 9.03774 12.868 1.27909 -10.1345
lowerback 5.35567 1.62953 5.75933
upperback -6.72866 2.98724 2.12792
thorax -10.0242 1.12198 -1.35841
lowerneck -20.0926 -3.71901 -0.798829
upperneck 22.4367 -6.89336 7.15994
head 10.8798 -2.31961 1.66419
rclavicle -2.78299e-015 1.19271e-014
rhumerus 32.1858 39.5057 -53.1819
rradius 61.2298
rwrist 27.7819
rhand 14.1736 -31.4221
rfingers 7.12502
rthumb 39.0732 -56.9211
lclavicle -2.78299e-015 1.19271e-014
lhumerus 27.674 -40.5264 56.5886
lradius 52.9656
lwrist -20.1883
lhand -12.5977 -23.0763
lfingers 7.12502
lthumb 13.481 6.46739
rfemur -12.404 19.1259 26.1938
rtibia 7.0259
rfoot -11.2232 -21.9674
rtoes 2.19586
lfemur -2.60559 -49.0658 -3.5365
ltibia -4.15812
lfoot -24.1082 55.6415
ltoes 12.7779
1462
root 0.317238 17.5681 9.02022 12.94 1.41384 -10.1842
lowerback 5.48875 1.5708 5.84398
upperback -6.6758 2.92737 2.15869
thorax -10.0476 1.08776 -1.36869
lowerneck -20.2555 -3.74747 -0.83643
upperneck 22.2496 -6.93338 7.2569
head 10.8496 -2.33093 1.69564
rclavicle 2.77056e-014 1.59028e-015
rhumerus 33.3282 39.6236 -52.2266
rradius 60.3867
rwrist 27.3445
rhand 14.9014 -30.4314
rfingers 7.12502
rthumb 39.7589 -55.7297
lclavicle 2.77056e-014 1.59028e-015
lhumerus 29.3254 -40.4376 55.5415
lradius 51.6881
lwrist -20.6271
lhand -12.4148 -23.9476
lfingers 7.12502
lthumb 13.6573 5.58428
rfemur -12.5217 19.1125 26.2163
rtibia 6.9537
rfoot -11.1481 -22.0479
rtoes 2.24176
lfemur -3.00953 -48.9093 -3.16029
ltibia -4.10178
lfoot -23.6344 55.4815
ltoes 12.4317
1463
root 0.313481 17.57 8.99886 12.9529 1.42065 -10.2089
lowerback 5.73788 1.53873 5.80622
upperback -6.59886 2.90006 2.19976
thorax -10.1166 1.07771 -1.308
lowerneck -20.3266 -3.75292 -0.866677
upperneck 21.9498 -6.9334 7.36198
head 10.7587 -2.32856 1.73525
rclavicle 8.94531e-016 2.66371e-014
rhumerus 34.6006 39.8473 -51.2246
rradius 59.1695
rwrist 27.0186
rhand 15.2847 -29.7136
rfingers 7.12502
rthumb 40.1195 -54.9034
lclavicle 8.94531e-016 2.66371e-014
lhumerus 31.0589 -40.436 54.2993
lradius 50.2562
lwrist -21.0285
lhand -11.9779 -24.7
lfingers 7.12502
lthumb 14.0783 4.80317
rfemur -12.5975 19.2406 26.2227
rtibia 6.89887
rfoot -11.0262 -22.1658
rtoes 2.16814
lfemur -3.18582 -48.9974 -2.97879
ltibia -4.06793
lfoot -23.8005 55.541
ltoes 12.7904
1464
root 0.307653 17.5721 8.97885 12.9374 1.28972 -10.2278
lowerback 5.98361 1.54844 5.68173
upperback -6.49142 2.91749 2.24204
thorax -10.1498 1.09729 -1.2036
lowerneck -20.3579 -3.70966 -0.832119
upperneck 21.602 -6.86834 7.42291
head 10.6356 -2.29918 1.75842
rclavicle 1.58158e-014 -1.66979e-014
rhumerus 36.1452 40.2024 -49.9888
rradius 57.6008
rwrist 27.1222
rhand 15.5527 -29.1442
rfingers 7.12502
rthumb 40.3717 -54.257
lclavicle 1.58158e-014 -1.66979e-014
lhumerus 32.7713 -40.4917 53.0143
lradius 48.6844
lwrist -21.31
lhand -11.5831 -25.8446
lfingers 7.12502
lthumb 14.4587 3.63173
rfemur -12.6214 19.4685 26.2315
rtibia 6.84334
rfoot -10.877 -22.2544
rtoes 2.02988
lfemur -3.12186 -49.2454 -2.97654
ltibia -4.10187
lfoot -24.2055 55.8429
ltoes 13.1813
1465
root 0.30343 17.5741 8.96186 12.9745 1.19314 -10.258
lowerback 6.1707 1.57224 5.60453
upperback -6.43403 2.9562 2.27571
thorax -10.2005 1.12227 -1.13611
lowerneck -20.3931 -3.6877 -0.763951
upperneck 21.3685 -6.83258 7.40118
head 10.5519 -2.28668 1.74267
rclavicle -6.78353e-015 4.85035e-014
rhumerus 37.7306 40.6911 -48.5114
rradius 55.8802
rwrist 27.4244
rhand 15.6963 -28.568
rfingers 7.12502
rthumb 40.5066 -53.6391
lclavicle -6.78353e-015 4.85035e-014
lhumerus 34.3803 -40.7049 51.8575
lradius 46.9355
lwrist -21.6894
lhand -11.7236 -27.112
lfingers 7.12502
lthumb 14.3233 2.37396
rfemur -12.6842 19.5982 26.2351
rtibia 6.78831
rfoot -10.7822 -22.2617
rtoes 1.99275
lfemur -3.15197 -49.4412 -2.8952
ltibia -4.13317
lfoot -24.5067 56.107
ltoes 13.3923
1466
root 0.301702 17.5776 8.94507 13.1354 1.21098 -10.2606
lowerback 6.34207 1.5739 5.55543
upperback -6.49874 2.97402 2.30489
thorax -10.379 1.1299 -1.08643
lowerneck -20.4225 -3.69856 -0.708212
upperneck 21.2907 -6.83285 7.3019
head 10.5225 -2.29622 1.69698
rclavicle 7.71533e-015 4.37326e-014
rhumerus 38.9615 41.1845 -47.3461
rradius 54.1104
rwrist 27.7701
rhand 15.8802 -27.8509
rfingers 7.12502
rthumb 40.6795 -52.8683
lclavicle 7.71533e-015 4.37326e-014
lhumerus 35.8298 -41.0825 50.9319
lradius 44.9432
lwrist -22.462
lhand -12.1861 -27.8381
lfingers 7.12502
lthumb 13.8776 1.67888
rfemur -12.908 19.6561 26.1454
rtibia 6.73308
rfoot -10.7244 -22.3138
rtoes 2.27915
lfemur -3.5487 -49.4856 -2.5673
ltibia -4.11725
lfoot -24.5722 56.1905
ltoes 13.4989
